<svg width="214" height="30" viewBox="0 0 214 30" fill="none" xmlns="http://www.w3.org/2000/svg">
<g clip-path="url(#clip0_306_263)">
<path d="M89.9158 2.52342V7.1145C87.4107 4.2404 83.742 2.42432 79.6511 2.42432C72.1147 2.42432 65.978 8.61184 65.978 16.211C65.978 23.8101 72.1147 29.9975 79.6511 29.9975C83.742 29.9975 87.4107 28.1815 89.9158 25.3074V29.8984H94.5699V2.52342H89.9158ZM79.6485 25.3101C74.6727 25.3101 70.6298 21.2253 70.6298 16.2136C70.6298 11.202 74.6701 7.11719 79.6485 7.11719C84.6266 7.11719 88.6698 11.202 88.6698 16.2136C88.6698 21.2253 84.624 25.3101 79.6485 25.3101Z" fill="#FFF9DC"/>
<path d="M148.674 2.52342V7.1145C146.18 4.2404 142.501 2.42432 138.415 2.42432C130.879 2.42432 124.742 8.61184 124.742 16.211C124.742 23.8101 130.879 29.9975 138.415 29.9975C142.504 29.9975 146.18 28.1815 148.674 25.3074V29.8984H153.329V2.52342H148.674ZM138.415 25.3101C133.442 25.3101 129.394 21.2253 129.394 16.2136C129.394 11.202 133.445 7.11719 138.415 7.11719C143.385 7.11719 147.434 11.202 147.434 16.2136C147.434 21.2253 143.393 25.3101 138.415 25.3101Z" fill="#FFF9DC"/>
<path d="M172.022 3.23571V7.92856C166.938 7.92856 162.802 12.1045 162.802 17.2313V29.8983H158.147V2.52588H162.802V6.7875C165.253 4.57498 168.484 3.23571 172.022 3.23571Z" fill="#FFF9DC"/>
<path d="M186.32 2.42676C178.783 2.42676 172.646 8.60891 172.646 16.2134C172.646 23.8179 178.783 29.9999 186.32 29.9999C193.856 29.9999 199.992 23.8179 199.992 16.2134C199.992 8.60891 193.861 2.42676 186.32 2.42676ZM186.32 25.3099C181.346 25.3099 177.298 21.225 177.298 16.2134C177.298 11.2018 181.349 7.11694 186.32 7.11694C191.29 7.11694 195.341 11.2018 195.341 16.2134C195.341 21.225 191.295 25.3099 186.32 25.3099Z" fill="#FFF9DC"/>
<path d="M208.977 9.95896V22.7465C208.977 24.1581 210.113 25.3099 211.514 25.3099H214V30H211.514C207.547 30 204.322 26.751 204.322 22.7465V9.95896H202.282V5.26609H204.322V0H208.977V5.26609H214V9.95896H208.977Z" fill="#FFF9DC"/>
<path d="M64.7745 29.8983H60.0967C59.3049 23.5179 53.8805 18.5572 47.3322 18.5572H45.3265V29.8983H40.6724V2.52588H45.3265V13.867H47.3322C53.8805 13.867 59.3049 8.90627 60.0967 2.52588H64.7745C64.2435 8.38394 60.859 13.4223 56.04 16.2107C60.859 18.9991 64.2435 24.0402 64.7745 29.8983Z" fill="#FFF9DC"/>
<path d="M123.512 29.8983H118.834C118.043 23.5179 112.618 18.5572 106.07 18.5572H104.064V29.8983H99.4102V2.52588H104.064V13.867H106.07C112.618 13.867 118.043 8.90627 118.834 2.52588H123.512C122.981 8.38394 119.597 13.4223 114.778 16.2107C119.597 18.9991 122.981 24.0402 123.512 29.8983Z" fill="#FFF9DC"/>
<path d="M27.1412 2.52734V7.0727C26.0655 7.25456 22.1892 8.04421 19.1563 11.6009C15.9098 15.408 15.8921 19.7322 15.9157 20.7657H11.2257C11.2492 19.7322 11.2315 15.408 7.98504 11.6009C4.95206 8.04418 1.07567 7.25456 0 7.0727V2.52734C5.80804 3.10028 10.8008 6.52449 13.5707 11.3917C16.3406 6.52449 21.3333 3.10028 27.1412 2.52734Z" fill="#0DAB0C"/>
<path d="M27.1412 25.3301H0V29.8944H27.1412V25.3301Z" fill="#FF7600"/>
</g>
<defs>
<clipPath id="clip0_306_263">
<rect width="214" height="30" fill="white"/>
</clipPath>
</defs>
</svg>
